# xmcd
#
# Track frame offsets:
#	150
#	19052
#	35554
#	52531
#	66812
#	80161
#	97187
#	116884
#	131073
#	142729
#	153838
#	172406
#	185991
#	196492
#
# Disc length: 2732 seconds
#
# Revision: 1
# Processed by: cddbd v1.5.2PL0 Copyright (c) Steve Scherf et al.
# Submitted via: audiograbber 1.83.01
#
DISCID=cc0aaa0e
DTITLE=Jean Nolan - Born Ready
DYEAR=2010
DGENRE=Austro
TTITLE0=Born Ready
TTITLE1=New Beginning
TTITLE2=Summer's Long Gone
TTITLE3=Lottery
TTITLE4=Roll On Rollercoaster
TTITLE5=But I Know
TTITLE6=You Will Have It All
TTITLE7=Ain't no
TTITLE8=I Still Feel
TTITLE9=Realy real
TTITLE10=I Can Hear The Wise Man Say
TTITLE11=American too
TTITLE12=Little Boy Jim
TTITLE13=I Won't Back Down
EXTD=
EXTT0=
EXTT1=
EXTT2=
EXTT3=
EXTT4=
EXTT5=
EXTT6=
EXTT7=
EXTT8=
EXTT9=
EXTT10=
EXTT11=
EXTT12=
EXTT13=
PLAYORDER=
